<svg width="302" height="201" viewBox="0 0 302 201" fill="none" xmlns="http://www.w3.org/2000/svg">
<path d="M125.803 153.668V100.437H131.842V153.668H125.803Z" fill="#D9D9D9"/>
<path d="M170.085 153.668V100.437H176.124V153.668H170.085Z" fill="#D9D9D9"/>
<path d="M147.944 153.668V100.437H153.983V153.668H147.944Z" fill="#D9D9D9"/>
<path d="M176.124 106.463H125.803V100.437H176.124V106.463Z" fill="#D9D9D9"/>
<path d="M176.124 129.563H125.803V123.537H176.124V129.563Z" fill="#D9D9D9"/>
<path d="M176.124 153.668H125.803V147.642H176.124V153.668Z" fill="#D9D9D9"/>
<path d="M0 102.669L63.8094 2.9759L157.189 4.46385L0 153.259V102.669Z" fill="#404040"/>
<path d="M157.189 4.46385L0 153.259V200.873L157.189 51.8748L163.414 45.9739L182.09 28.2711L169.639 16.3675L157.189 4.46385Z" fill="#D9D9D9"/>
<path d="M169.639 16.3675L182.09 28.2711V0H169.639V16.3675Z" fill="#404040"/>
<path d="M182.09 0V28.2711L217.886 62.4939V0H182.09Z" fill="#D9D9D9"/>
<path d="M301.927 144.331L182.09 28.2711L163.414 45.9739L255.237 144.331H301.927Z" fill="#D9D9D9"/>
<path d="M255.237 144.331L163.414 45.9739L157.189 51.8748L242.787 144.331H255.237Z" fill="#404040"/>
</svg>
