<svg width="145" height="71" viewBox="0 0 145 71" fill="none" xmlns="http://www.w3.org/2000/svg">
<path d="M38.8116 46.7685V30.5676H40.6745V46.7685H38.8116Z" fill="#D9D9D9"/>
<path d="M52.4732 46.7685V30.5676H54.3362V46.7685H52.4732Z" fill="#D9D9D9"/>
<path d="M45.6424 46.7685V30.5676H47.5054V46.7685H45.6424Z" fill="#D9D9D9"/>
<path d="M54.3362 32.4019H38.8116V30.5678H54.3362V32.4019Z" fill="#D9D9D9"/>
<path d="M54.3362 39.4324H38.8116V37.5983H54.3362V39.4324Z" fill="#D9D9D9"/>
<path d="M54.3362 46.7686H38.8116V44.9345H54.3362V46.7686Z" fill="#D9D9D9"/>
<path d="M0 31.247L19.6859 0.905709L48.4944 1.35856L0 46.644V31.247Z" fill="#403C36"/>
<path d="M48.4944 1.35856L0 46.644V61.1354L48.4944 15.788L50.415 13.992L56.1767 8.60424L52.3356 4.9814L48.4944 1.35856Z" fill="#D9D9D9"/>
<path d="M52.3356 4.9814L56.1767 8.60424V0H52.3356V4.9814Z" fill="#403C36"/>
<path d="M56.1767 0V8.60424L67.22 19.0199V0H56.1767Z" fill="#D9D9D9"/>
<path d="M93.1478 43.9269L56.1767 8.60424L50.415 13.992L78.7435 43.9269H93.1478Z" fill="#D9D9D9"/>
<path d="M78.7435 43.9269L50.415 13.992L48.4944 15.788L74.9023 43.9269H78.7435Z" fill="#403C36"/>
<path d="M46.5948 55.066V51.6129H59.8903V55.066H55.3569V65.7947H51.0728V55.066H46.5948ZM68.2299 66.0624C66.7403 66.0624 65.46 65.7577 64.389 65.1484C63.3241 64.5328 62.5024 63.6773 61.9238 62.5816C61.3514 61.4798 61.0651 60.2026 61.0651 58.7499C61.0651 57.2911 61.3514 56.0139 61.9238 54.9183C62.5024 53.8165 63.3241 52.9609 64.389 52.3515C65.46 51.736 66.7403 51.4282 68.2299 51.4282C69.7195 51.4282 70.9967 51.736 72.0616 52.3515C73.1326 52.9609 73.9544 53.8165 74.5268 54.9183C75.1054 56.0139 75.3947 57.2911 75.3947 58.7499C75.3947 60.2026 75.1054 61.4798 74.5268 62.5816C73.9544 63.6773 73.1326 64.5328 72.0616 65.1484C70.9967 65.7577 69.7195 66.0624 68.2299 66.0624ZM68.2576 62.6555C68.7993 62.6555 69.2579 62.4893 69.6333 62.1569C70.0088 61.8245 70.295 61.3629 70.492 60.772C70.6951 60.181 70.7967 59.4978 70.7967 58.7222C70.7967 57.9344 70.6951 57.245 70.492 56.6541C70.295 56.0631 70.0088 55.6015 69.6333 55.2691C69.2579 54.9367 68.7993 54.7705 68.2576 54.7705C67.6975 54.7705 67.2235 54.9367 66.8357 55.2691C66.4541 55.6015 66.1617 56.0631 65.9586 56.6541C65.7616 57.245 65.6632 57.9344 65.6632 58.7222C65.6632 59.4978 65.7616 60.181 65.9586 60.772C66.1617 61.3629 66.4541 61.8245 66.8357 62.1569C67.2235 62.4893 67.6975 62.6555 68.2576 62.6555ZM77.7075 65.7947V51.6129H90.5137V65.7947H86.2388V55.066H81.927V65.7947H77.7075ZM92.5518 70.3465V62.2308H93.8537C94.2907 61.9353 94.6908 61.5229 95.054 60.9935C95.4171 60.458 95.728 59.7071 95.9865 58.7407C96.245 57.7682 96.4297 56.4848 96.5405 54.8906L97.1314 46.8856H110.067V62.2308H112.098V70.3373H107.703V65.7947H96.9467V70.3465H92.5518ZM99.098 62.2308H105.672V50.5972H101.231L100.935 54.8906C100.855 56.0908 100.726 57.1496 100.548 58.0667C100.369 58.9838 100.157 59.784 99.9105 60.4673C99.6643 61.1443 99.3934 61.7322 99.098 62.2308ZM118.192 66.0347C117.287 66.0347 116.484 65.8839 115.782 65.5823C115.086 65.2746 114.535 64.8129 114.129 64.1974C113.729 63.5757 113.529 62.797 113.529 61.8614C113.529 61.0736 113.668 60.4088 113.945 59.8671C114.222 59.3255 114.603 58.8853 115.089 58.5468C115.576 58.2083 116.136 57.9528 116.77 57.7805C117.404 57.602 118.081 57.4819 118.801 57.4204C119.607 57.3465 120.257 57.2696 120.749 57.1896C121.242 57.1034 121.599 56.9834 121.82 56.8295C122.048 56.6694 122.162 56.4448 122.162 56.1555V56.1093C122.162 55.6353 121.999 55.2691 121.673 55.0106C121.346 54.7521 120.906 54.6228 120.352 54.6228C119.755 54.6228 119.275 54.7521 118.912 55.0106C118.549 55.2691 118.318 55.6261 118.219 56.0816L114.055 55.9339C114.178 55.0721 114.495 54.3027 115.006 53.6256C115.523 52.9424 116.231 52.4069 117.13 52.0191C118.035 51.6252 119.121 51.4282 120.389 51.4282C121.294 51.4282 122.128 51.5359 122.891 51.7514C123.655 51.9606 124.319 52.2684 124.886 52.6746C125.452 53.0747 125.889 53.5672 126.197 54.1519C126.511 54.7367 126.668 55.4045 126.668 56.1555V65.7947H122.42V63.8188H122.31C122.057 64.2989 121.734 64.7052 121.34 65.0376C120.952 65.37 120.494 65.6193 119.964 65.7854C119.441 65.9516 118.85 66.0347 118.192 66.0347ZM119.586 63.0802C120.072 63.0802 120.509 62.9817 120.897 62.7847C121.291 62.5878 121.605 62.3169 121.839 61.9722C122.073 61.6214 122.19 61.2151 122.19 60.7535V59.4055C122.06 59.4732 121.903 59.5347 121.719 59.5901C121.54 59.6455 121.343 59.6978 121.128 59.7471C120.912 59.7963 120.691 59.8394 120.463 59.8764C120.235 59.9133 120.017 59.9471 119.808 59.9779C119.383 60.0456 119.02 60.1503 118.718 60.2918C118.423 60.4334 118.195 60.6181 118.035 60.8458C117.881 61.0674 117.804 61.3321 117.804 61.6398C117.804 62.1077 117.97 62.4647 118.303 62.7109C118.641 62.9571 119.069 63.0802 119.586 63.0802ZM133.269 51.6129L135.605 56.2847L138.024 51.6129H142.576L138.615 58.7038L142.724 65.7947H138.209L135.605 61.0859L133.066 65.7947H128.486L132.604 58.7038L128.69 51.6129H133.269Z" fill="#403C36"/>
</svg>
