<svg width="80" height="80" viewBox="0 0 80 80" fill="none" xmlns="http://www.w3.org/2000/svg">
<path d="M49.9998 33.3327L36.6665 46.666L29.9998 39.9994M44.1535 11.5293L48.2234 14.9976C49.2487 15.8714 50.5218 16.3997 51.8647 16.5069L57.1949 16.9317C60.3286 17.1817 62.8178 19.6693 63.0679 22.8031L63.4917 28.1341C63.5988 29.477 64.129 30.752 65.0028 31.7773L68.4696 35.8461C70.5086 38.2388 70.509 41.7584 68.4699 44.1512L65.0031 48.2206C64.1293 49.2459 63.5998 50.5214 63.4927 51.8642L63.0662 57.1944C62.8162 60.3282 60.3309 62.8173 57.1971 63.0674L51.8651 63.4928C50.5222 63.6 49.2478 64.1269 48.2225 65.0007L44.1535 68.4691C41.7607 70.5082 38.2389 70.5086 35.8462 68.4695L31.7772 65.001C30.7518 64.1272 29.4775 63.5994 28.1346 63.4922L22.8026 63.0674C19.6688 62.8173 17.1835 60.3288 16.9334 57.195L16.507 51.8646C16.3998 50.5217 15.8704 49.2474 14.9966 48.222L11.5298 44.1514C9.49071 41.7586 9.48975 38.2401 11.5288 35.8473L14.9988 31.7767C15.8725 30.7514 16.3969 29.477 16.5041 28.1341L16.9305 22.8037C17.1806 19.67 19.6731 17.1814 22.8068 16.9313L28.133 16.5065C29.4759 16.3994 30.7508 15.8715 31.7762 14.9977L35.8465 11.5293C38.2393 9.49023 41.7607 9.49023 44.1535 11.5293Z" stroke="#C79114" stroke-width="4" stroke-linecap="round" stroke-linejoin="round"/>
</svg>
