<svg width="40" height="40" viewBox="0 0 40 40" fill="none" xmlns="http://www.w3.org/2000/svg">
<path fill-rule="evenodd" clip-rule="evenodd" d="M8.82165 8.82147C9.47253 8.17059 10.5278 8.17059 11.1787 8.82147L20.0002 17.643L28.8217 8.82147C29.4725 8.17059 30.5278 8.17059 31.1787 8.82147C31.8295 9.47234 31.8295 10.5276 31.1787 11.1785L22.3572 20L31.1787 28.8215C31.8295 29.4723 31.8295 30.5276 31.1787 31.1785C30.5278 31.8294 29.4725 31.8294 28.8217 31.1785L20.0002 22.357L11.1787 31.1785C10.5278 31.8294 9.47253 31.8294 8.82165 31.1785C8.17078 30.5276 8.17078 29.4723 8.82165 28.8215L17.6431 20L8.82165 11.1785C8.17078 10.5276 8.17078 9.47234 8.82165 8.82147Z" fill="#33302E"/>
</svg>
