<svg width="25" height="24" viewBox="0 0 25 24" fill="none" xmlns="http://www.w3.org/2000/svg">
<path d="M4.3335 6L10.4411 10.6123L10.4432 10.614C11.1213 11.1113 11.4606 11.3601 11.8323 11.4562C12.1607 11.5412 12.506 11.5412 12.8345 11.4562C13.2064 11.36 13.5467 11.1105 14.2261 10.6123C14.2261 10.6123 18.1436 7.60594 20.3335 6M3.3335 15.8002V8.2002C3.3335 7.08009 3.3335 6.51962 3.55148 6.0918C3.74323 5.71547 4.04897 5.40973 4.42529 5.21799C4.85312 5 5.41359 5 6.53369 5H18.1337C19.2538 5 19.8131 5 20.2409 5.21799C20.6172 5.40973 20.924 5.71547 21.1157 6.0918C21.3335 6.5192 21.3335 7.07899 21.3335 8.19691V15.8036C21.3335 16.9215 21.3335 17.4805 21.1157 17.9079C20.924 18.2842 20.6172 18.5905 20.2409 18.7822C19.8135 19 19.2545 19 18.1366 19H6.53041C5.41249 19 4.8527 19 4.42529 18.7822C4.04897 18.5905 3.74323 18.2842 3.55148 17.9079C3.3335 17.4801 3.3335 16.9203 3.3335 15.8002Z" stroke="#C79114" stroke-width="2" stroke-linecap="round" stroke-linejoin="round"/>
</svg>
